<mxfile host="app.diagrams.net" modified="2023-02-17T08:18:43.425Z" agent="5.0 (Macintosh; Intel Mac OS X 10_15_7) AppleWebKit/605.1.15 (KHTML, like Gecko) Version/16.3 Safari/605.1.15" etag="MaJ3cUHeZZH5VhJqW-qf" version="20.8.20" type="github">
  <diagram name="Страница 1" id="12IpHf0sFVai40G35q9B">
    <mxGraphModel dx="853" dy="909" grid="1" gridSize="10" guides="1" tooltips="1" connect="1" arrows="1" fold="1" page="1" pageScale="1" pageWidth="827" pageHeight="1169" math="0" shadow="0">
      <root>
        <mxCell id="0" />
        <mxCell id="1" parent="0" />
        <mxCell id="fxyE95zHCGZzTo6bt5Q0-2" value="Клиент" style="shape=umlActor;verticalLabelPosition=bottom;verticalAlign=top;html=1;outlineConnect=0;" vertex="1" parent="1">
          <mxGeometry x="80" y="50" width="30" height="60" as="geometry" />
        </mxCell>
        <mxCell id="fxyE95zHCGZzTo6bt5Q0-3" value="Потребность в хранении товара/продажи" style="ellipse;whiteSpace=wrap;html=1;" vertex="1" parent="1">
          <mxGeometry x="120" y="320" width="120" height="80" as="geometry" />
        </mxCell>
        <mxCell id="fxyE95zHCGZzTo6bt5Q0-4" value="" style="endArrow=classic;html=1;rounded=0;entryX=0.5;entryY=0;entryDx=0;entryDy=0;" edge="1" parent="1" source="fxyE95zHCGZzTo6bt5Q0-2" target="fxyE95zHCGZzTo6bt5Q0-3">
          <mxGeometry width="50" height="50" relative="1" as="geometry">
            <mxPoint x="370" y="430" as="sourcePoint" />
            <mxPoint x="420" y="380" as="targetPoint" />
          </mxGeometry>
        </mxCell>
        <mxCell id="fxyE95zHCGZzTo6bt5Q0-5" value="Инженер&lt;br&gt;" style="shape=umlActor;verticalLabelPosition=bottom;verticalAlign=top;html=1;outlineConnect=0;" vertex="1" parent="1">
          <mxGeometry x="510" y="70" width="30" height="60" as="geometry" />
        </mxCell>
        <mxCell id="fxyE95zHCGZzTo6bt5Q0-6" value="Маркетолог" style="shape=umlActor;verticalLabelPosition=bottom;verticalAlign=top;html=1;outlineConnect=0;" vertex="1" parent="1">
          <mxGeometry x="383" y="50" width="30" height="60" as="geometry" />
        </mxCell>
        <mxCell id="fxyE95zHCGZzTo6bt5Q0-7" value="Бухгалтер" style="shape=umlActor;verticalLabelPosition=bottom;verticalAlign=top;html=1;outlineConnect=0;" vertex="1" parent="1">
          <mxGeometry x="730" y="50" width="30" height="60" as="geometry" />
        </mxCell>
        <mxCell id="fxyE95zHCGZzTo6bt5Q0-8" value="Оплата услуг&lt;br&gt;" style="ellipse;whiteSpace=wrap;html=1;" vertex="1" parent="1">
          <mxGeometry x="30" y="450" width="110" height="30" as="geometry" />
        </mxCell>
        <mxCell id="fxyE95zHCGZzTo6bt5Q0-9" value="" style="endArrow=classic;html=1;rounded=0;entryX=0.5;entryY=0;entryDx=0;entryDy=0;" edge="1" parent="1" source="fxyE95zHCGZzTo6bt5Q0-2" target="fxyE95zHCGZzTo6bt5Q0-8">
          <mxGeometry width="50" height="50" relative="1" as="geometry">
            <mxPoint x="420" y="480" as="sourcePoint" />
            <mxPoint x="470" y="430" as="targetPoint" />
          </mxGeometry>
        </mxCell>
        <mxCell id="fxyE95zHCGZzTo6bt5Q0-10" value="Расчет по товарам" style="ellipse;whiteSpace=wrap;html=1;" vertex="1" parent="1">
          <mxGeometry x="685" y="490" width="120" height="80" as="geometry" />
        </mxCell>
        <mxCell id="fxyE95zHCGZzTo6bt5Q0-11" value="extends" style="html=1;verticalAlign=bottom;endArrow=open;dashed=1;endSize=8;edgeStyle=elbowEdgeStyle;elbow=vertical;curved=0;rounded=0;exitX=0;exitY=0.5;exitDx=0;exitDy=0;entryX=1;entryY=0.5;entryDx=0;entryDy=0;" edge="1" parent="1" source="fxyE95zHCGZzTo6bt5Q0-10" target="fxyE95zHCGZzTo6bt5Q0-8">
          <mxGeometry relative="1" as="geometry">
            <mxPoint x="490" y="460" as="sourcePoint" />
            <mxPoint x="410" y="460" as="targetPoint" />
            <Array as="points">
              <mxPoint x="570" y="520" />
            </Array>
          </mxGeometry>
        </mxCell>
        <mxCell id="fxyE95zHCGZzTo6bt5Q0-12" value="" style="endArrow=classic;html=1;rounded=0;entryX=0.5;entryY=0;entryDx=0;entryDy=0;" edge="1" parent="1" source="fxyE95zHCGZzTo6bt5Q0-7" target="fxyE95zHCGZzTo6bt5Q0-10">
          <mxGeometry width="50" height="50" relative="1" as="geometry">
            <mxPoint x="570" y="100" as="sourcePoint" />
            <mxPoint x="470" y="430" as="targetPoint" />
          </mxGeometry>
        </mxCell>
        <mxCell id="fxyE95zHCGZzTo6bt5Q0-13" value="выплата зарплаты" style="ellipse;whiteSpace=wrap;html=1;" vertex="1" parent="1">
          <mxGeometry x="620" y="440" width="100" height="40" as="geometry" />
        </mxCell>
        <mxCell id="fxyE95zHCGZzTo6bt5Q0-14" value="" style="endArrow=classic;html=1;rounded=0;entryX=1;entryY=0;entryDx=0;entryDy=0;" edge="1" parent="1" source="fxyE95zHCGZzTo6bt5Q0-7" target="fxyE95zHCGZzTo6bt5Q0-13">
          <mxGeometry width="50" height="50" relative="1" as="geometry">
            <mxPoint x="420" y="470" as="sourcePoint" />
            <mxPoint x="470" y="420" as="targetPoint" />
          </mxGeometry>
        </mxCell>
        <mxCell id="fxyE95zHCGZzTo6bt5Q0-15" value="extends" style="html=1;verticalAlign=bottom;endArrow=open;dashed=1;endSize=8;edgeStyle=elbowEdgeStyle;elbow=vertical;curved=0;rounded=0;exitX=0;exitY=0.5;exitDx=0;exitDy=0;entryX=1;entryY=0.5;entryDx=0;entryDy=0;" edge="1" parent="1" source="fxyE95zHCGZzTo6bt5Q0-13" target="fxyE95zHCGZzTo6bt5Q0-8">
          <mxGeometry relative="1" as="geometry">
            <mxPoint x="550" y="475" as="sourcePoint" />
            <mxPoint x="170" y="463" as="targetPoint" />
          </mxGeometry>
        </mxCell>
        <mxCell id="fxyE95zHCGZzTo6bt5Q0-16" value="Предоставление&lt;br&gt;рекаламы&amp;nbsp;" style="ellipse;whiteSpace=wrap;html=1;" vertex="1" parent="1">
          <mxGeometry x="180" y="210" width="120" height="60" as="geometry" />
        </mxCell>
        <mxCell id="fxyE95zHCGZzTo6bt5Q0-17" value="" style="endArrow=classic;html=1;rounded=0;entryX=0;entryY=0;entryDx=0;entryDy=0;" edge="1" parent="1" source="fxyE95zHCGZzTo6bt5Q0-2" target="fxyE95zHCGZzTo6bt5Q0-16">
          <mxGeometry width="50" height="50" relative="1" as="geometry">
            <mxPoint x="170" y="210" as="sourcePoint" />
            <mxPoint x="220" y="160" as="targetPoint" />
          </mxGeometry>
        </mxCell>
        <mxCell id="fxyE95zHCGZzTo6bt5Q0-19" value="Рассылка рекламы и ее улучшение" style="ellipse;whiteSpace=wrap;html=1;" vertex="1" parent="1">
          <mxGeometry x="300" y="330" width="120" height="80" as="geometry" />
        </mxCell>
        <mxCell id="fxyE95zHCGZzTo6bt5Q0-21" value="" style="endArrow=classic;html=1;rounded=0;entryX=0.5;entryY=0;entryDx=0;entryDy=0;" edge="1" parent="1" source="fxyE95zHCGZzTo6bt5Q0-6" target="fxyE95zHCGZzTo6bt5Q0-19">
          <mxGeometry width="50" height="50" relative="1" as="geometry">
            <mxPoint x="360" y="220" as="sourcePoint" />
            <mxPoint x="410" y="170" as="targetPoint" />
          </mxGeometry>
        </mxCell>
        <mxCell id="fxyE95zHCGZzTo6bt5Q0-22" value="extends" style="html=1;verticalAlign=bottom;endArrow=open;dashed=1;endSize=8;edgeStyle=elbowEdgeStyle;elbow=vertical;curved=0;rounded=0;entryX=1;entryY=0.5;entryDx=0;entryDy=0;exitX=0;exitY=0.5;exitDx=0;exitDy=0;" edge="1" parent="1" source="fxyE95zHCGZzTo6bt5Q0-19" target="fxyE95zHCGZzTo6bt5Q0-16">
          <mxGeometry x="0.0084" relative="1" as="geometry">
            <mxPoint x="370" y="180.18" as="sourcePoint" />
            <mxPoint x="290" y="180.18" as="targetPoint" />
            <mxPoint as="offset" />
          </mxGeometry>
        </mxCell>
        <mxCell id="fxyE95zHCGZzTo6bt5Q0-23" value="Размещение товаров и их хранение" style="ellipse;whiteSpace=wrap;html=1;" vertex="1" parent="1">
          <mxGeometry x="465" y="290" width="120" height="80" as="geometry" />
        </mxCell>
        <mxCell id="fxyE95zHCGZzTo6bt5Q0-24" value="" style="endArrow=classic;html=1;rounded=0;entryX=0.5;entryY=0;entryDx=0;entryDy=0;" edge="1" parent="1" source="fxyE95zHCGZzTo6bt5Q0-5" target="fxyE95zHCGZzTo6bt5Q0-23">
          <mxGeometry width="50" height="50" relative="1" as="geometry">
            <mxPoint x="540" y="260" as="sourcePoint" />
            <mxPoint x="590" y="210" as="targetPoint" />
          </mxGeometry>
        </mxCell>
        <mxCell id="fxyE95zHCGZzTo6bt5Q0-25" value="extends" style="html=1;verticalAlign=bottom;endArrow=open;dashed=1;endSize=8;edgeStyle=elbowEdgeStyle;elbow=vertical;curved=0;rounded=0;exitX=0.5;exitY=1;exitDx=0;exitDy=0;entryX=0.5;entryY=1;entryDx=0;entryDy=0;" edge="1" parent="1" source="fxyE95zHCGZzTo6bt5Q0-23" target="fxyE95zHCGZzTo6bt5Q0-3">
          <mxGeometry relative="1" as="geometry">
            <mxPoint x="635" y="420" as="sourcePoint" />
            <mxPoint x="140" y="421" as="targetPoint" />
            <Array as="points">
              <mxPoint x="350" y="440" />
            </Array>
          </mxGeometry>
        </mxCell>
        <mxCell id="fxyE95zHCGZzTo6bt5Q0-26" value="Зарплата" style="ellipse;whiteSpace=wrap;html=1;" vertex="1" parent="1">
          <mxGeometry x="585" y="225" width="100" height="30" as="geometry" />
        </mxCell>
        <mxCell id="fxyE95zHCGZzTo6bt5Q0-30" value="extends" style="html=1;verticalAlign=bottom;endArrow=open;dashed=1;endSize=8;edgeStyle=elbowEdgeStyle;elbow=vertical;curved=0;rounded=0;exitX=0.5;exitY=1;exitDx=0;exitDy=0;entryX=0.435;entryY=0.025;entryDx=0;entryDy=0;entryPerimeter=0;" edge="1" parent="1" source="fxyE95zHCGZzTo6bt5Q0-26" target="fxyE95zHCGZzTo6bt5Q0-13">
          <mxGeometry relative="1" as="geometry">
            <mxPoint x="645" y="474" as="sourcePoint" />
            <mxPoint x="150" y="475" as="targetPoint" />
          </mxGeometry>
        </mxCell>
        <mxCell id="fxyE95zHCGZzTo6bt5Q0-31" value="" style="endArrow=none;html=1;rounded=0;entryX=0;entryY=0;entryDx=0;entryDy=0;exitX=1;exitY=0.3333333333333333;exitDx=0;exitDy=0;exitPerimeter=0;" edge="1" parent="1" source="fxyE95zHCGZzTo6bt5Q0-6" target="fxyE95zHCGZzTo6bt5Q0-26">
          <mxGeometry width="50" height="50" relative="1" as="geometry">
            <mxPoint x="430" y="240" as="sourcePoint" />
            <mxPoint x="480" y="190" as="targetPoint" />
          </mxGeometry>
        </mxCell>
        <mxCell id="fxyE95zHCGZzTo6bt5Q0-32" value="" style="endArrow=none;html=1;rounded=0;entryX=0.5;entryY=0;entryDx=0;entryDy=0;exitX=1;exitY=0.3333333333333333;exitDx=0;exitDy=0;exitPerimeter=0;" edge="1" parent="1" source="fxyE95zHCGZzTo6bt5Q0-5" target="fxyE95zHCGZzTo6bt5Q0-26">
          <mxGeometry width="50" height="50" relative="1" as="geometry">
            <mxPoint x="570" y="190" as="sourcePoint" />
            <mxPoint x="620" y="140" as="targetPoint" />
          </mxGeometry>
        </mxCell>
        <mxCell id="fxyE95zHCGZzTo6bt5Q0-33" value="" style="endArrow=none;html=1;rounded=0;exitX=1;exitY=0;exitDx=0;exitDy=0;entryX=0;entryY=0.3333333333333333;entryDx=0;entryDy=0;entryPerimeter=0;" edge="1" parent="1" source="fxyE95zHCGZzTo6bt5Q0-26" target="fxyE95zHCGZzTo6bt5Q0-7">
          <mxGeometry width="50" height="50" relative="1" as="geometry">
            <mxPoint x="660" y="220" as="sourcePoint" />
            <mxPoint x="710" y="170" as="targetPoint" />
          </mxGeometry>
        </mxCell>
      </root>
    </mxGraphModel>
  </diagram>
</mxfile>
